<svg id="Group_17" data-name="Group 17" xmlns="http://www.w3.org/2000/svg" width="45" height="45" viewBox="0 0 45 45">
  <path id="Path_17" data-name="Path 17" d="M45,0H0V45H45Z" fill="none"/>
  <path id="Path_18" data-name="Path 18" d="M10.231,24.042,36.968,39.8a1.455,1.455,0,0,0,1.342.057A1.145,1.145,0,0,0,39,38.84V6.16a1.145,1.145,0,0,0-.69-1.019,1.455,1.455,0,0,0-1.342.057L10.231,20.958V6.313A2.478,2.478,0,0,0,7.615,4,2.478,2.478,0,0,0,5,6.313V38.688A2.478,2.478,0,0,0,7.615,41a2.478,2.478,0,0,0,2.615-2.313Z" transform="translate(1)" fill="#e8e8e8"/>
</svg>
